<svg width="68" height="69" viewBox="0 0 68 69" fill="none" xmlns="http://www.w3.org/2000/svg">
<path d="M31.7109 31.5679V65.2827L29.4609 66.4077L0.210938 51.8179V15.2554L29.4609 0.630371L58.7109 15.2554V41.4116H54.2109V20.3179L31.7109 31.5679ZM29.4609 5.69287L20.9883 9.91162L42.8203 20.9507L51.4336 16.6616L29.4609 5.69287ZM27.2109 60.2554V31.5679L4.71094 20.3179V49.0054L27.2109 60.2554ZM7.48828 16.6616L29.4609 27.6304L37.8281 23.4819L15.9609 12.4429L7.48828 16.6616ZM45.2109 59.4116V54.9116H67.7109V59.4116H45.2109ZM45.2109 45.9116H67.7109V50.4116H45.2109V45.9116ZM36.2109 68.4116V63.9116H40.7109V68.4116H36.2109ZM36.2109 50.4116V45.9116H40.7109V50.4116H36.2109ZM36.2109 59.4116V54.9116H40.7109V59.4116H36.2109ZM45.2109 68.4116V63.9116H67.7109V68.4116H45.2109Z" fill="black"/>
</svg>
