<svg width="69" height="69" viewBox="0 0 69 69" fill="none" xmlns="http://www.w3.org/2000/svg">
<path d="M32.1318 31.8615V65.5763L29.8818 66.7013L0.631836 52.1115V15.549L29.8818 0.92395L59.1318 15.549V41.7052H54.6318V20.6115L32.1318 31.8615ZM29.8818 5.98645L21.4092 10.2052L43.2412 21.2443L51.8545 16.9552L29.8818 5.98645ZM27.6318 60.549V31.8615L5.13184 20.6115V49.299L27.6318 60.549ZM7.90918 16.9552L29.8818 27.924L38.249 23.7755L16.3818 12.7365L7.90918 16.9552ZM45.6318 59.7052V55.2052H68.1318V59.7052H45.6318ZM45.6318 46.2052H68.1318V50.7052H45.6318V46.2052ZM36.6318 68.7052V64.2052H41.1318V68.7052H36.6318ZM36.6318 50.7052V46.2052H41.1318V50.7052H36.6318ZM36.6318 59.7052V55.2052H41.1318V59.7052H36.6318ZM45.6318 68.7052V64.2052H68.1318V68.7052H45.6318Z" fill="#E55B02"/>
</svg>
